PathFileType	3	(X/Y/Z)	D:\Vicon Database\Healthy Subjects\S0040\Jan. 30, 2020\Force Plate Walk 4.trc
DataRate	CameraRate	NumFrames	NumMarkers	Units	OrigDataRate	OrigDataStartFrame	OrigNumFrames
100.0	100.0	5	53	mm	100.0	323	329	
Frame#	Time	right_foot_cluster2			right_foot_cluster3			sternum_cluster1			sternum_cluster2			sternum_cluster3			left_asis			right_asis			left_psis			right_psis			sacrum_cluster1			sacrum_cluster2			sacrum_cluster3			left_lat_femoral_epicondyle			left_anterior_thigh15			left_anterior_thigh25			left_anterior_thigh50			left_lateral_thigh25			left_lateral_thigh50			left_thigh_cluster1			left_thigh_cluster2			left_thigh_cluster3			left_fibular_head			left_tibial_tuberosity			left_anterior_shank30			left_lateral_malleolus			left_shank_cluster1			left_shank_cluster2			left_shank_cluster3			left_heel			left_metatarsal2			left_foot_cluster1			left_foot_cluster2			left_foot_cluster3			right_lat_femoral_epicondyle			right_anterior_thigh15			right_anterior_thigh25			right_anterior_thigh50			right_lateral_thigh25			right_lateral_thigh50			right_thigh_cluster1			right_thigh_cluster2			right_thigh_cluster3			right_fibular_head			right_tibial_tuberosity			right_lateral_distal_shank			right_anterior_shank30			right_lateral_malleolus			right_shank_cluster1			right_shank_cluster2			right_shank_cluster3			right_heel			right_metatarsal2			right_foot_cluster1			
		X1	Y1	Z1	X2	Y2	Z2	X3	Y3	Z3	X4	Y4	Z4	X5	Y5	Z5	X6	Y6	Z6	X7	Y7	Z7	X8	Y8	Z8	X9	Y9	Z9	X10	Y10	Z10	X11	Y11	Z11	X12	Y12	Z12	X13	Y13	Z13	X14	Y14	Z14	X15	Y15	Z15	X16	Y16	Z16	X17	Y17	Z17	X18	Y18	Z18	X19	Y19	Z19	X20	Y20	Z20	X21	Y21	Z21	X22	Y22	Z22	X23	Y23	Z23	X24	Y24	Z24	X25	Y25	Z25	X26	Y26	Z26	X27	Y27	Z27	X28	Y28	Z28	X29	Y29	Z29	X30	Y30	Z30	X31	Y31	Z31	X32	Y32	Z32	X33	Y33	Z33	X34	Y34	Z34	X35	Y35	Z35	X36	Y36	Z36	X37	Y37	Z37	X38	Y38	Z38	X39	Y39	Z39	X40	Y40	Z40	X41	Y41	Z41	X42	Y42	Z42	X43	Y43	Z43	X44	Y44	Z44	X45	Y45	Z45	X46	Y46	Z46	X47	Y47	Z47	X48	Y48	Z48	X49	Y49	Z49	X50	Y50	Z50	X51	Y51	Z51	X52	Y52	Z52	X53	Y53	Z53	
323	3.22	3532.397	140.23772	-179.42015	3526.8635	141.13664	-216.85039	3139.832	1439.8162	-93.19323	3128.3967	1411.55	-84.083199	3128.9868	1414.0376	-122.17099	3158.1978	1067.0939	22.077013	3163.3816	1060.4166	-227.33217	3326.5801	1080.0413	-20.676683	3329.6465	1077.2928	-139.2077				3342.439	1109.7744	-99.95015	3345.5967	1106.7819	-60.426113	3113.2295	547.06805	43.269154	3040.1909	645.77515	-6.6886187	3044.6741	731.5249	10.45636	3080.3735	864.11792	28.381943	3147.8501	695.71478	69.553856	3176.762	841.18579	97.925461	3170.7087	794.79645	102.97537	3166.3623	765.44904	99.037376	3132.4517	782.09491	102.48691	3100.405	467.836	47.305023	3047.2017	463.27823	-9.2412157	3083.3618	211.0809	-28.201481	3142.7085	100.83873	-1.3803698	3051.3835	406.42365	-40.273624	3047.7756	378.76056	-32.996586	3064.5923	381.19162	-67.497635	3215.186	66.859764	-40.224842	2996.9641	74.498199	-37.957325	3058.4568	121.03345	-32.425961	3034.3765	105.0741	-22.118982	3029.7019	111.38999	-59.4576	3240.2896	515.56049	-258.9899	3139.0798	585.48669	-209.28659	3119.2678	669.96545	-203.23511	3121.6353	804.65277	-201.03952	3225.7751	669.87317	-273.21674	3226.2368	816.44745	-286.15543	3235.7075	767.74994	-294.74051	3224.929	741.23029	-294.58063	3262.418	739.99408	-285.76968	3284.355	471.41806	-265.52591	3248.22	423.95831	-223.28714	3499.7441	314.90076	-246.72847	3457.7998	282.40912	-205.40932	3576.209	245.2373	-233.47063	3303.959	378.16486	-167.99648	3328.7852	365.69177	-160.99364	3316.4473	352.60034	-194.44582	3637.8369	300.41937	-198.53821	3550.6687	99.516464	-186.74133			
324	3.23	3505.8018	145.54079	-174.95384	3499.5518	145.49326	-212.73636	3127.2625	1441.6082	-92.428535	3115.2046	1413.8105	-83.384354	3116.7717	1415.9602	-121.73042	3145.2275	1069.0587	22.482147	3151.7117	1062.4258	-227.25209	3313.863	1081.8275	-19.199675	3317.6699	1078.7887	-137.73233				3330.092	1111.432	-98.409981	3332.8362	1108.4355	-58.920357	3108.4492	546.211	44.106129	3033.6143	644.36169	-5.8841944	3036.4668	730.15723	11.346439	3070.0354	863.10114	29.262096	3141.8127	695.5882	70.034882	3166.9214	841.88495	98.383926	3161.6252	795.23645	103.90685	3157.7852	765.88782	99.775665	3124.0344	781.74219	103.31554	3096.0605	467.35199	47.964199	3043.4204	462.26816	-8.8956289	3082.1873	210.54506	-28.025616	3142.0935	100.88664	-1.0008761	3048.291	405.8309	-39.880341	3044.9226	377.83466	-32.837021	3062.2278	380.70612	-67.262711	3215.0908	66.940559	-40.133533	2996.6602	74.020813	-37.645287	3058.2119	120.92992	-32.164177	3034.332	104.69642	-22.067072	3029.6416	110.98808	-59.214222	3215.1614	517.28058	-258.94827	3116.4312	589.49219	-208.81488	3098.7498	674.52759	-202.90163	3105.9658	808.44147	-200.99986	3206.5259	671.31201	-272.52512	3211.9824	818.58716	-285.82043	3219.8423	769.21448	-294.50122	3208.0215	742.60632	-293.9993	3245.3606	740.57129	-284.89209	3257.7961	473.05905	-265.40793	3221.2031	425.58087	-222.67554	3473.9243	318.03903	-245.71571	3432.1685	285.71442	-204.25278	3550.4092	248.89864	-231.79486	3277.3259	381.44827	-165.68793	3303.1682	368.82623	-159.71632	3292.0125	354.51044	-192.7182	3613.5168	303.31927	-198.96609	3523.2383	104.13297	-181.94882			
325	3.24	3477.4287	149.09644	-171.61165	3471.9473	148.35814	-209.1306	3114.4146	1444.0258	-91.93013	3102.6257	1415.8857	-83.256012	3104.4226	1418.0509	-121.51876	3132.4822	1070.4807	22.999748	3140.0002	1064.7474	-226.88864	3301.2668	1083.6633	-17.904776	3305.5769	1080.4368	-136.39673				3317.7634	1113.1754	-96.997467	3320.1487	1110.1157	-57.518761	3103.4082	546.28107	44.69088	3027.45	643.44629	-6.1595383	3028.6084	729.13812	11.766088	3059.8701	862.61407	30.345877	3134.6311	696.16327	70.344322	3157.2117	842.61981	98.884109	3152.7231	795.99402	104.15216	3149.3945	766.31506	100.43847	3115.4292	781.82001	104.15067	3092.2012	466.87479	48.36005	3041.7424	461.25757	-9.1558008	3081.0405	210.23555	-27.894678	3141.8606	101.01614	-0.70816773	3046.0945	405.15964	-39.911751	3042.5774	377.45987	-32.832592	3060.2764	380.17538	-67.236359	3215.0364	67.058052	-40.064758	2996.6309	73.773018	-37.678837	3058.0081	120.77211	-31.962797	3034.2488	104.36495	-21.920162	3029.5176	110.64156	-59.25634	3190.198	519.85266	-258.85229	3093.8198	593.91766	-208.73471	3079.98	679.01447	-202.69386	3090.2432	812.80878	-200.75598	3187.7339	673.64612	-272.07504	3198.4185	820.61194	-284.98343	3203.1433	770.99646	-293.45889	3191.9648	745.27234	-294.01617	3228.1956	741.69922	-283.8009	3231.2832	474.72107	-265.3681	3194.5012	427.85727	-221.87469	3446.7507	319.42975	-244.54773	3405.7979	288.38901	-201.99698	3523.9644	250.59369	-229.99422	3251.2659	384.32193	-164.924	3277.5872	371.90451	-158.64606	3266.6072	356.86426	-191.09477	3588.4766	304.341	-198.33032	3493.71	107.34244	-178.12422			
326	3.25	3447.7542	151.88446	-169.09833	3442.1787	150.49486	-206.74741	3101.4497	1446.2067	-91.263901	3090.168	1417.9006	-82.805473	3092.1753	1420.202	-120.98871	3119.7944	1072.2368	23.511709	3128.3093	1067.2625	-226.21902	3288.8643	1085.5863	-16.790678	3293.5591	1082.5378	-135.24556				3305.5776	1115.2861	-95.730965	3307.6213	1112.0424	-56.297272	3098.8997	546.76526	45.017193	3021.4219	642.35596	-6.5166163	3020.9524	728.35486	11.76479	3049.9509	862.2334	31.154913	3127.772	696.94513	70.602867	3147.6741	843.64691	99.335838	3143.9617	797.03528	104.95081	3141.4749	767.54456	100.38959	3107.1184	782.24304	104.3709	3088.9719	466.91809	48.557465	3037.6768	460.83255	-9.0518312	3080.1245	210.06282	-27.815001	3141.5815	101.28959	-0.38678429	3043.531	404.76309	-39.792454	3040.5764	377.04449	-32.852009	3058.3401	379.90433	-67.095024	3214.9609	67.147667	-40.042366	2996.5618	73.355446	-37.651566	3057.8696	120.66158	-31.740788	3034.094	104.15967	-21.686171	3029.2393	110.51301	-59.017502	3165.5627	522.70221	-258.70636	3071.8831	598.87305	-208.48634	3060.0876	684.30865	-202.19075	3074.4482	817.47034	-200.349	3167.551	674.53522	-270.74564	3182.6982	822.9278	-283.5976	3187.3701	773.57867	-291.98267	3175.0012	747.93695	-293.19449	3211.1311	743.58832	-282.61502	3204.8918	476.3038	-265.17676	3168.7122	430.19385	-220.76741	3418.8992	319.66266	-243.26727	3378.3586	289.59348	-199.36276	3497.2153	250.19836	-227.7802	3225.7207	388.73196	-162.85928	3251.3154	375.86093	-156.50012	3239.1509	360.10883	-188.27118	3562.8584	303.38538	-196.62987	3462.9312	109.2776	-175.29756			
327	3.26	3416.5217	153.45654	-167.96957	3411.4526	151.89284	-205.18648	3088.9063	1448.4877	-90.865425	3077.4048	1420.0878	-82.474136	3079.9592	1422.1536	-120.85223	3106.9521	1074.12	24.548832	3116.5542	1069.9811	-225.40451	3276.5142	1087.7458	-15.765628	3281.5786	1085.0096	-134.18529				3293.3567	1117.6604	-94.4785	3295.1997	1114.2982	-55.055752	3094.877	547.36743	44.975681	3015.6641	641.71552	-7.1549711	3013.5449	727.78076	11.869666	3040.2214	861.90222	31.666067	3120.9194	697.99707	70.711296	3138.614	844.85242	99.605019	3135.3728	798.4928	104.99173	3133.363	768.70294	100.85775	3099.0002	782.91992	104.47364	3086.3049	466.96469	48.532524	3033.9668	460.44067	-9.3808861	3079.2004	210.00708	-27.760378	3141.3086	101.45581	-0.25042114	3040.9766	404.59412	-39.595573	3038.5784	376.56134	-32.783714	3056.1621	379.61801	-67.006889	3214.8948	67.376297	-39.973442	2996.293	73.159378	-37.494141	3057.5334	120.60054	-31.587749	3033.696	104.05132	-21.490047	3028.5134	110.58095	-58.281498	3141.1318	525.63843	-258.48965	3049.9722	604.0661	-208.24158	3040.8411	689.62708	-201.91066	3058.9663	822.29724	-200.14056	3148.6658	678.69336	-269.02832	3167.5969	825.50031	-282.33289	3170.3865	775.59808	-291.39755	3157.7959	750.23541	-292.17041	3194.2385	745.11591	-281.44281	3178.9841	478.02792	-264.87576	3141.9092	433.25595	-220.23047	3391.0767	319.71567	-242.18852	3350.5215	290.85269	-196.629	3469.7749	250.37384	-225.54785	3200.4583	392.43765	-161.32286	3225.1279	380.22629	-155.01736	3212.6528	363.26453	-185.96036	3536.6865	300.43927	-193.85609	3430.3215	110.22047	-173.34854	3412.2864	181.43593	-179.71706
